<?xml version="1.0" encoding="UTF-8" standalone="no"?>
<!DOCTYPE svg PUBLIC "-//W3C//DTD SVG 1.1//EN" "http://www.w3.org/Graphics/SVG/1.1/DTD/svg11.dtd">
<svg width="8.0cm" height="5.0cm" viewBox="0 0 401 251" xmlns="http://www.w3.org/2000/svg" version="1.1">
<rect x="50.0" y="43.2333333333" width="70.0" height="156.766666667" fill="Lavender" stroke="none"/><rect x="50.0" y="166.666666667" width="70.0" height="33.3333333333" fill="LimeGreen" stroke="none"/><line x1="20.0" y1="200.0" x2="150.0" y2="200.0" stroke="black" stroke-width="1"/>
<polygon fill="black" stroke="black" stroke-width="1" points="150.0,200.0 140.0,197.0 140.0,203.0"/>
<path d="M 20.0,275.566666667 C 20.019226845,275.484900413 21.0787810189,270.958480942 21.625,268.656008008  22.1621896051,266.391596537 22.7037411785,264.128200408 23.25,261.865959896  23.7871510766,259.641437602 24.3287007484,257.417957237 24.875,255.195664128  25.4121119892,253.010743923 25.9536597241,250.826893179 26.5,248.6442625  27.037072339,246.498657251 27.5786181016,244.354149981 28.125,242.21089681  28.6620321227,240.104319335 29.2035758779,237.998869388 29.75,235.894708854  30.286991338,233.826871922 30.8285330512,231.760193142 31.375,229.69484043  31.9119499835,227.665456755 32.4534896205,225.637262983 33.0,223.610433333  33.536908059,221.619215575 34.0784455863,219.629220646 34.625,217.640629362  35.1618655654,215.68729012 35.7034009506,213.735207865 36.25,211.784570313  36.7868225052,209.868822126 37.3283557169,207.954366369 37.875,206.041397982  38.4117788823,204.162953324 38.9533098908,202.285837885 39.5,200.410254167  40.0367347027,198.568825444 40.5782634799,196.728764136 41.125,194.890280664  41.6616899742,193.085580208 42.2032164941,191.282286839 42.75,189.480619271  43.2866447071,187.71235934 43.8281689462,185.945547709 44.375,184.180411784  44.911598914,182.448304556 45.4531208519,180.717688458 46.0,178.9888  46.5365526108,177.292557569 47.0780722301,175.59785079 47.625,173.904925716  48.1615058162,172.244260088 48.7030231039,170.585176407 49.25,168.927930729  49.7864585527,167.302553817 50.3279735003,165.678807007 50.875,164.056956836  51.4114108471,162.466580457 51.9501648108,160.876917226 52.5,159.291145833  53.5674745988,156.212458412 54.6443979822,153.136736088 55.75,150.071579688  56.8119439949,147.127460212 57.89397949,144.190200684 59.0,141.262366667  60.0615581873,138.452232366 61.1435577291,135.649394277 62.25,132.856641146  63.3111699447,130.178159165 64.3931352938,127.507446634 65.5,124.8475375  66.5607816622,122.298370636 67.6427155145,119.757487151 68.75,117.228190104  69.8103963955,114.805996435 70.892302624,112.392644865 72.0,109.991733333  73.0600180086,107.69416586 74.141901954,105.406048512 75.25,103.131301562  76.3096513484,100.956007886 77.3915201659,98.7908266068 78.5,96.6400291667  79.5593024498,94.5846512273 80.6411655158,92.540107592 81.75,90.5110505208  82.8089787721,88.5732244554 83.8908481496,86.6470200583 85.0,84.7375  86.0586894651,82.9148561769 87.14058042,81.1046930669 88.25,79.3125119792  89.3084456578,77.6026753 90.3903772072,75.9062566051 91.5,74.2292208333  92.558260756,72.6298114167 93.6402562072,71.0448422068 94.75,69.4807609375  95.8081507219,67.9893953314 96.8902381379,66.5135837701 98.0,65.0602666667  99.0581342941,63.6745597687 100.14034678,62.3056185962 101.25,60.9608723958  102.308233082,59.6784402885 103.37734776,58.4014194034 104.5,57.1757125  106.593350763,54.8902011097 108.731326362,52.6292427503 111.0,50.5206333333  113.073438121,48.5934847676 115.239942219,46.7429999325 117.5,45.0401041667  119.580687568,43.4723592712 121.753160482,41.9960410433 124.0,40.6792  126.092018226,39.4530975387 128.27082281,38.3354233197 130.5,37.3829958333  132.607566351,36.482527207 134.791629466,35.7081114404 137.0,35.0965666667  139.126508715,34.507691172 141.313265225,34.0601924118 143.5,33.7649875 " fill="none" stroke="red" stroke-width="1"/>
<rect x="250.0" y="76.5333333333" width="40.0" height="123.466666667" fill="Lavender" stroke="none"/>
<rect x="290.0" y="43.2333333333" width="30.0" height="156.766666667" fill="Lavender" stroke="none"/>
<rect x="250.0" y="166.666666667" width="40.0" height="33.3333333333" fill="LimeGreen" stroke="none"/>
<rect x="290.0" y="76.5333333333" width="30.0" height="123.466666667" fill="LimeGreen" stroke="none"/>
<path d="M 250.0,200.0 v -156.766666667 h 70.0 v 156.766666667" fill="none" stroke="black" stroke-width="1" stroke-dasharray="5,3"/>
<line x1="250.0" y1="166.666666667" x2="320.0" y2="166.666666667" stroke="black" stroke-width="1" stroke-dasharray="5,3"/>
<line x1="220.0" y1="200.0" x2="350.0" y2="200.0" stroke="black" stroke-width="1"/>
<polygon fill="black" stroke="black" stroke-width="1" points="350.0,200.0 340.0,197.0 340.0,203.0"/>
<path d="M 220.0,275.566666667 C 220.019226845,275.484900413 221.078781019,270.958480942 221.625,268.656008008  222.162189605,266.391596537 222.703741178,264.128200408 223.25,261.865959896  223.787151077,259.641437602 224.328700748,257.417957237 224.875,255.195664128  225.412111989,253.010743923 225.953659724,250.826893179 226.5,248.6442625  227.037072339,246.498657251 227.578618102,244.354149981 228.125,242.21089681  228.662032123,240.104319335 229.203575878,237.998869388 229.75,235.894708854  230.286991338,233.826871922 230.828533051,231.760193142 231.375,229.69484043  231.911949984,227.665456755 232.45348962,225.637262983 233.0,223.610433333  233.536908059,221.619215575 234.078445586,219.629220646 234.625,217.640629362  235.161865565,215.68729012 235.703400951,213.735207865 236.25,211.784570313  236.786822505,209.868822126 237.328355717,207.954366369 237.875,206.041397982  238.411778882,204.162953324 238.953309891,202.285837885 239.5,200.410254167  240.036734703,198.568825444 240.57826348,196.728764136 241.125,194.890280664  241.661689974,193.085580208 242.203216494,191.282286839 242.75,189.480619271  243.286644707,187.71235934 243.828168946,185.945547709 244.375,184.180411784  244.911598914,182.448304556 245.453120852,180.717688458 246.0,178.9888  246.536552611,177.292557569 247.07807223,175.59785079 247.625,173.904925716  248.161505816,172.244260088 248.703023104,170.585176407 249.25,168.927930729  249.786458553,167.302553817 250.3279735,165.678807007 250.875,164.056956836  251.411410847,162.466580457 251.950164811,160.876917226 252.5,159.291145833  253.567474599,156.212458412 254.644397982,153.136736088 255.75,150.071579688  256.811943995,147.127460212 257.89397949,144.190200684 259.0,141.262366667  260.061558187,138.452232366 261.143557729,135.649394277 262.25,132.856641146  263.311169945,130.178159165 264.393135294,127.507446634 265.5,124.8475375  266.560781662,122.298370636 267.642715515,119.757487151 268.75,117.228190104  269.810396396,114.805996435 270.892302624,112.392644865 272.0,109.991733333  273.060018009,107.69416586 274.141901954,105.406048512 275.25,103.131301562  276.309651348,100.956007886 277.391520166,98.7908266068 278.5,96.6400291667  279.55930245,94.5846512273 280.641165516,92.540107592 281.75,90.5110505208  282.808978772,88.5732244554 283.89084815,86.6470200583 285.0,84.7375  286.058689465,82.9148561769 287.14058042,81.1046930669 288.25,79.3125119792  289.308445658,77.6026753 290.390377207,75.9062566051 291.5,74.2292208333  292.558260756,72.6298114167 293.640256207,71.0448422068 294.75,69.4807609375  295.808150722,67.9893953314 296.890238138,66.5135837701 298.0,65.0602666667  299.058134294,63.6745597687 300.14034678,62.3056185962 301.25,60.9608723958  302.308233082,59.6784402885 303.37734776,58.4014194034 304.5,57.1757125  306.593350763,54.8902011097 308.731326362,52.6292427503 311.0,50.5206333333  313.073438121,48.5934847676 315.239942219,46.7429999325 317.5,45.0401041667  319.580687568,43.4723592712 321.753160482,41.9960410433 324.0,40.6792  326.092018226,39.4530975387 328.27082281,38.3354233197 330.5,37.3829958333  332.607566351,36.482527207 334.791629466,35.7081114404 337.0,35.0965666667  339.126508715,34.507691172 341.313265225,34.0601924118 343.5,33.7649875 " fill="none" stroke="red" stroke-width="1"/>
</svg>